HIERARCHY
ROOT Hips
{
	OFFSET	0.00	0.00	0.00
	CHANNELS 6 Xposition Yposition Zposition Zrotation Xrotation Yrotation
	JOINT LeftUpLeg
	{
		OFFSET	 0.126116	-0.014019	-0.065224
		CHANNELS 3 Zrotation Xrotation Yrotation
		JOINT LeftLeg
		{
			OFFSET	 0.000000	 0.000000	 0.569914
			CHANNELS 3 Zrotation Xrotation Yrotation
			JOINT LeftFoot
			{
				OFFSET	 0.000000	 0.000000	 0.544423
				CHANNELS 3 Zrotation Xrotation Yrotation
				JOINT LeftToeBase
				{
					OFFSET	 0.000000	 0.000000	 0.207117
					CHANNELS 3 Zrotation Xrotation Yrotation
					End Site
					{
						OFFSET	 0.000000	 0.000000	 0.207117
					}
				}
			}
		}
	}
	JOINT RightUpLeg
	{
		OFFSET	-0.124023	-0.008373	-0.065224
		CHANNELS 3 Zrotation Xrotation Yrotation
		JOINT RightLeg
		{
			OFFSET	 0.000000	 0.000000	 0.570047
			CHANNELS 3 Zrotation Xrotation Yrotation
			JOINT RightFoot
			{
				OFFSET	 0.000000	 0.000000	 0.544354
				CHANNELS 3 Zrotation Xrotation Yrotation
				JOINT RightToeBase
				{
					OFFSET	 0.000000	 0.000000	 0.207540
					CHANNELS 3 Zrotation Xrotation Yrotation
					End Site
					{
						OFFSET	 0.000000	 0.000000	 0.207540
					}
				}
			}
		}
	}
	JOINT Spine
	{
		OFFSET	 0.000184	-0.007763	 0.117403
		CHANNELS 3 Zrotation Xrotation Yrotation
		JOINT Spine1
		{
			OFFSET	 0.000000	 0.000000	 0.137269
			CHANNELS 3 Zrotation Xrotation Yrotation
			JOINT Spine2
			{
				OFFSET	 0.000000	 0.000000	 0.156879
				CHANNELS 3 Zrotation Xrotation Yrotation
				JOINT LeftShoulder
				{
					OFFSET	 0.080501	-0.002496	 0.160144
					CHANNELS 3 Zrotation Xrotation Yrotation
					JOINT LeftArm
					{
						OFFSET	 0.000000	 0.000000	 0.164363
						CHANNELS 3 Zrotation Xrotation Yrotation
						JOINT LeftForeArm
						{
							OFFSET	 0.000000	 0.000000	 0.364576
							CHANNELS 3 Zrotation Xrotation Yrotation
							JOINT LeftHand
							{
								OFFSET	 0.000000	 0.000000	 0.360812
								CHANNELS 3 Zrotation Xrotation Yrotation
								JOINT LeftHandIndex1
								{
									OFFSET	 0.000000	 0.000000	 0.086006
									CHANNELS 3 Zrotation Xrotation Yrotation
									JOINT LeftHandIndex2
									{
										OFFSET	 0.000000	 0.000000	 0.047236
										CHANNELS 3 Zrotation Xrotation Yrotation
										JOINT LeftHandIndex3
										{
											OFFSET	-0.004284	-0.000551	 0.038166
											CHANNELS 3 Zrotation Xrotation Yrotation
											End Site
											{
												OFFSET	-0.004284	-0.000551	 0.038166
											}
										}
									}
								}
							}
						}
					}
				}
				JOINT Neck
				{
					OFFSET	 0.000000	 0.000000	 0.176489
					CHANNELS 3 Zrotation Xrotation Yrotation
					JOINT Head
					{
						OFFSET	 0.000000	-0.001747	 0.077940
						CHANNELS 3 Zrotation Xrotation Yrotation
						End Site
						{
							OFFSET	 0.000000	-0.001747	 0.077940
						}
					}
				}
				JOINT RightShoulder
				{
					OFFSET	-0.080363	 0.000306	 0.159706
					CHANNELS 3 Zrotation Xrotation Yrotation
					JOINT RightArm
					{
						OFFSET	 0.000000	 0.000000	 0.164196
						CHANNELS 3 Zrotation Xrotation Yrotation
						JOINT RightForeArm
						{
							OFFSET	 0.000000	 0.000000	 0.365611
							CHANNELS 3 Zrotation Xrotation Yrotation
							JOINT RightHand
							{
								OFFSET	 0.000000	 0.000000	 0.360648
								CHANNELS 3 Zrotation Xrotation Yrotation
								JOINT RightHandIndex1
								{
									OFFSET	 0.000000	 0.000000	 0.069977
									CHANNELS 3 Zrotation Xrotation Yrotation
									JOINT RightHandIndex2
									{
										OFFSET	 0.000000	 0.000000	 0.052305
										CHANNELS 3 Zrotation Xrotation Yrotation
										JOINT RightHandIndex3
										{
											OFFSET	 0.009002	-0.000782	 0.042196
											CHANNELS 3 Zrotation Xrotation Yrotation
											End Site
											{
												OFFSET	 0.009002	-0.000782	 0.042196
											}
										}
									}
								}
							}
						}
					}
				}
			}
		}
	}
}
MOTION
Frames:    5
Frame Time: 0.03333334
 0.002288	 0.022890	 1.215238	 0.001869	 0.736486	 0.483341	 4.121768	-1.740600	 179.840900	 3.149054	-11.594560	 1.749952	 4.341489	 71.407150	 1.245834	-2.385833	 28.452760	 0.000004	-4.123327	-2.151783	-179.865500	-3.142116	-11.963990	-1.790687	-4.347235	 71.430570	-1.263901	 2.384659	 28.388700	-0.000001	-0.005923	 3.783161	 0.089848	 0.000000	 0.000000	 0.000000	 0.000000	 0.000000	 0.000000	-91.229260	 83.958310	 178.242600	 12.080020	 0.580816	-1.590062	-5.132527	-0.912958	-0.284914	-17.110520	-4.480704	-4.304984	-2.434338	 5.182776	 7.472631	-5.213937	-0.202400	 3.566957	-1.378229	 35.397820	-2.634230	 0.411357	-3.779086	-0.073053	-0.595966	 0.008129	-0.142397	 87.726900	 87.419040	-176.798800	-12.547750	 3.325960	 3.698915	 5.871922	-0.462907	 0.434563	 17.353300	-5.506128	 8.540023	 3.236365	 2.840245	-9.892056	 5.070519	-0.690904	-9.399550	-2.350882	 35.473990	 5.254307
 0.014309	 0.038505	 1.216882	 179.981400	 0.635598	-0.158425	-6.552366	-9.872806	-178.643100	-1.737945	-40.377900	-7.035543	-162.393000	 83.110950	 149.027600	-2.206036	 46.478330	-0.465290	-3.011045	-9.461656	-177.565200	 6.714083	-40.298930	 9.700376	-179.917400	 83.284660	-171.000100	 2.359547	 32.914970	 0.101249	-0.998901	 5.870201	 0.100075	 3.473879	 9.456637	 1.743705	-8.189854	-22.302350	-2.634678	-91.229230	 83.958370	 178.242600	 36.826610	 63.923230	-46.452810	 6.957045	-0.107197	-1.834951	 23.977160	-4.884766	-7.996809	-11.591960	 8.222681	-24.504030	-5.213937	-0.202400	 3.566957	-1.378229	 35.397820	-2.634230	-1.376076	 7.043543	 5.367170	-5.641852	-19.378880	-7.835992	 87.727020	 87.418960	-176.799000	-61.771430	 58.811990	 62.841110	-7.054419	-0.137394	 1.837113	-38.808350	-3.211585	 18.260420	-0.632558	 25.633890	-61.781170	 5.070519	-0.690904	-9.399550	-2.350882	 35.473990	 5.254307
 0.013496	 0.036668	 1.218300	-179.822800	 0.606421	-0.431583	-6.293333	-10.340200	-177.840200	-1.756733	-39.812160	-6.966601	-165.404000	 84.521600	 152.007700	-2.170064	 48.413150	-0.529541	-3.285899	-10.133870	-177.951300	 6.737176	-40.436080	 9.742779	-174.714000	 83.874040	-176.068500	 2.367503	 31.671160	 0.072708	-2.049375	 5.701378	 0.375548	 3.429197	 8.777463	 1.633473	-7.915475	-22.015630	-2.367558	-91.229160	 83.958270	 178.242500	 45.800650	 67.552790	-55.037730	 5.874217	-0.074901	-2.140542	 23.359030	-4.955306	-8.056252	-11.606670	 7.896282	-24.304730	-5.213937	-0.202400	 3.566957	-1.378229	 35.397820	-2.634230	-1.418431	 6.910861	 5.411551	-5.685310	-19.734700	-7.880992	 87.726620	 87.418820	-176.798600	-67.512330	 59.905950	 67.611570	-5.641794	-0.102537	 2.141515	-37.906690	-2.997018	 18.348410	-0.217724	 26.284020	-61.923680	 5.070519	-0.690904	-9.399550	-2.350882	 35.473990	 5.254307
 0.013553	 0.036126	 1.218643	-179.719800	 0.601229	-0.406366	-6.333204	-10.480380	-177.745600	-1.693524	-39.723940	-6.912601	-166.060900	 84.821200	 152.611000	-2.160038	 48.911930	-0.546801	-3.460887	-10.269540	-178.165200	 6.747753	-40.400640	 9.742971	-172.874900	 84.058620	-177.879400	 2.368169	 31.561270	 0.070208	-2.346353	 5.727149	 0.370489	 3.423403	 8.534184	 1.613878	-7.854733	-21.963230	-2.332740	-91.229290	 83.958340	 178.242600	 48.686430	 68.340980	-57.772160	 5.707982	-0.065786	-2.212861	 23.327050	-4.973799	-8.087001	-11.715410	 7.713015	-24.531790	-5.213937	-0.202400	 3.566957	-1.378229	 35.397820	-2.634230	-1.413714	 6.859415	 5.347214	-5.675208	-19.844810	-7.814692	 87.726900	 87.418960	-176.798900	-72.353260	 60.815900	 66.861220	-5.021444	-4.368516	 11.890650	-37.746830	-2.973937	 18.380390	-0.179934	 26.353700	-61.993030	 5.070519	-0.690904	-9.399550	-2.350882	 35.473990	 5.254307
 0.013629	 0.035654	 1.218942	-179.625800	 0.597268	-0.379905	-6.379616	-10.589020	-177.685700	-1.638192	-39.657170	-6.866943	-166.537000	 85.055530	 153.042400	-2.150576	 49.367950	-0.562851	-3.614587	-10.368160	-178.336500	 6.757213	-40.367390	 9.742811	-171.403300	 84.203130	-179.332600	 2.368762	 31.460830	 0.067942	-2.619666	 5.752005	 0.363225	 3.417548	 8.365122	 1.591232	-7.799635	-21.940400	-2.302013	-91.229220	 83.958310	 178.242500	 51.074410	 68.892940	-60.017170	 5.554328	-0.057719	-2.281452	 23.297120	-4.990961	-8.115232	-11.815330	 7.546002	-24.739440	-5.213937	-0.202400	 3.566957	-1.378229	 35.397820	-2.634230	-1.409441	 6.812375	 5.288413	-5.665598	-19.945520	-7.754005	 87.727160	 87.419040	-176.799100	-75.907090	 61.419420	 66.622890	-4.143680	-7.120575	 18.572440	-37.599920	-2.952785	 18.409370	-0.145297	 26.417350	-62.056540	 5.070519	-0.690904	-9.399550	-2.350882	 35.473990	 5.254307
